# xmcd
#
# Track frame offsets:
#	225
#	24985
#	54260
#	87930
#	101990
#	130462
#	149002
#	171842
#	190647
#	209202
#	231270
#	262482
#
# Disc length: 3679 seconds
#
# Revision: 3
# Processed by: cddbd v1.5.2PL0 Copyright (c) Steve Scherf et al.
# Submitted via: audiograbber 1.83.01
#
DISCID=bc0e5c0c
DTITLE=Michael Farquharson - Michael Farquharson
DYEAR=1992
DGENRE=Jazz
TTITLE0=Clock Talk
TTITLE1=Too Many At Once
TTITLE2=Wishing You Were Here
TTITLE3=Summer At The Cod
TTITLE4=Waltz For Hortense
TTITLE5=Balloon Song
TTITLE6=Blame The Muchachas
TTITLE7=The Flying Scotsman
TTITLE8=Ladies Fly From Love's Smooth Tale
TTITLE9=Giant Slalom
TTITLE10=Leather 'N' Chips
TTITLE11=Very Late
EXTD=YEAR: 1992
EXTT0=
EXTT1=
EXTT2=
EXTT3=
EXTT4=
EXTT5=
EXTT6=
EXTT7=
EXTT8=
EXTT9=
EXTT10=
EXTT11=
PLAYORDER=
